# xmcd CD database file
#
# Track frame offsets:
#	150
#	14050
#	29170
#	45801
#	68154
#	83439
#
# Disc length: 1315 seconds
#
# Revision: 0
# Processed by: cddbd v1.5.2PL0 Copyright (c) Steve Scherf et al.
# Submitted via: CDex 1.51
#
DISCID=42052106
DTITLE=The Blue News Project - The Signs
DYEAR=2007
DGENRE=Blues
TTITLE0=Leavin'
TTITLE1=Love's So Strong
TTITLE2=Come Back Home
TTITLE3=Homewrecker Rehab Blues
TTITLE4=Same Old Story
TTITLE5=Next Time
EXTD=YEAR: 2007
EXTT0=
EXTT1=
EXTT2=
EXTT3=
EXTT4=
EXTT5=
PLAYORDER=
